<svg width="760" height="560" viewBox="0 0 760 560" fill="none" xmlns="http://www.w3.org/2000/svg" role="img" aria-labelledby="title desc">
<title id="title">DomainStacker product preview</title>
<desc id="desc">A stylized app dashboard showing an idea becoming available domains and a launch stack.</desc>
<rect width="760" height="560" rx="40" fill="#F8FAFC"/>
<circle cx="620" cy="88" r="110" fill="#20C3CA" fill-opacity="0.16"/>
<circle cx="122" cy="456" r="140" fill="#0F172A" fill-opacity="0.06"/>
<rect x="76" y="58" width="608" height="424" rx="30" fill="white" stroke="#DDE8EA"/>
<rect x="76" y="58" width="608" height="74" rx="30" fill="#0F172A"/>
<circle cx="118" cy="95" r="8" fill="#20C3CA"/>
<circle cx="145" cy="95" r="8" fill="#67E8F9"/>
<circle cx="172" cy="95" r="8" fill="#E2E8F0"/>
<rect x="214" y="84" width="318" height="22" rx="11" fill="white" fill-opacity="0.12"/>
<text x="102" y="172" fill="#0F172A" font-family="Inter, ui-sans-serif, system-ui" font-size="23" font-weight="800">Describe your idea</text>
<rect x="102" y="194" width="258" height="78" rx="18" fill="#F1F5F9" stroke="#E2E8F0"/>
<text x="124" y="226" fill="#475569" font-family="Inter, ui-sans-serif, system-ui" font-size="15">AI bookkeeping assistant</text>
<text x="124" y="248" fill="#475569" font-family="Inter, ui-sans-serif, system-ui" font-size="15">for freelancers</text>
<rect x="102" y="292" width="152" height="44" rx="14" fill="#20C3CA"/>
<text x="127" y="320" fill="white" font-family="Inter, ui-sans-serif, system-ui" font-size="15" font-weight="800">Generate</text>
<rect x="399" y="157" width="232" height="78" rx="20" fill="white" stroke="#DDE8EA"/>
<text x="424" y="189" fill="#0F172A" font-family="Inter, ui-sans-serif, system-ui" font-size="19" font-weight="800">LedgerPilot</text>
<text x="424" y="212" fill="#64748B" font-family="Inter, ui-sans-serif, system-ui" font-size="14">ledgerpilot.com</text>
<rect x="542" y="175" width="67" height="28" rx="14" fill="#ECFEFF"/>
<text x="559" y="194" fill="#0891B2" font-family="Inter, ui-sans-serif, system-ui" font-size="12" font-weight="800">94%</text>
<rect x="386" y="251" width="258" height="82" rx="20" fill="white" stroke="#DDE8EA"/>
<text x="411" y="284" fill="#0F172A" font-family="Inter, ui-sans-serif, system-ui" font-size="19" font-weight="800">FreelanceForge</text>
<text x="411" y="307" fill="#64748B" font-family="Inter, ui-sans-serif, system-ui" font-size="14">freelanceforge.co</text>
<rect x="556" y="270" width="66" height="28" rx="14" fill="#ECFEFF"/>
<text x="573" y="289" fill="#0891B2" font-family="Inter, ui-sans-serif, system-ui" font-size="12" font-weight="800">91%</text>
<rect x="399" y="350" width="232" height="82" rx="20" fill="white" stroke="#DDE8EA"/>
<text x="424" y="383" fill="#0F172A" font-family="Inter, ui-sans-serif, system-ui" font-size="19" font-weight="800">TaxBase</text>
<text x="424" y="406" fill="#64748B" font-family="Inter, ui-sans-serif, system-ui" font-size="14">taxbase.app</text>
<rect x="542" y="369" width="67" height="28" rx="14" fill="#ECFEFF"/>
<text x="559" y="388" fill="#0891B2" font-family="Inter, ui-sans-serif, system-ui" font-size="12" font-weight="800">88%</text>
<path d="M318 235 C362 235 348 191 395 191" stroke="#20C3CA" stroke-width="4" stroke-linecap="round" stroke-dasharray="7 9"/>
<path d="M318 235 C371 259 338 294 383 294" stroke="#20C3CA" stroke-width="4" stroke-linecap="round" stroke-dasharray="7 9"/>
<path d="M318 235 C378 305 341 391 394 391" stroke="#20C3CA" stroke-width="4" stroke-linecap="round" stroke-dasharray="7 9"/>
</svg>
